#!OML:ASF H:\BabyWalks\Project 1\Capture day 1\Session 1\baby.ASF
:FULLY-SPECIFIED
:DEGREES
1034
root -3.90342 17.9877 -1.70229 -36.2396 79.9804 -42.4421
lowerback 17.0993 2.77564 5.09584
upperback 3.14816 4.74089 0.322461
thorax -5.79634 2.29418 -3.55722
lowerneck -1.36304 1.67346 8.44737
upperneck -14.3551 2.16198 -5.80209
head -3.8987 1.06927 -3.25194
rclavicle -4.01545e-014 1.25234e-014
rhumerus -45.7075 18.3816 -86.4338
rradius 78.2118
rwrist -14.0978
rhand -17.0971 -10.1141
rfingers 7.12502
rthumb 9.14164 -39.896
lclavicle -4.01545e-014 1.25234e-014
lhumerus -74.2696 -24.9117 87.3773
lradius 63.3064
lwrist 3.13268
lhand 24.6218 12.8827
lfingers 7.12502
lthumb 48.8137 34.7067
rfemur 5.71807 7.34415 27.0896
rtibia 21.4729
rfoot -4.07743 8.32615
rtoes -20.2305
lfemur -30.4707 -3.53181 -9.96504
ltibia 26.2553
lfoot -19.9739 5.77098
ltoes -18.2577
1035
root -3.72439 17.9379 -1.69179 -37.6016 79.7145 -43.418
lowerback 17.2591 2.76582 5.0124
upperback 3.21957 4.71968 0.262272
thorax -5.80955 2.28739 -3.5785
lowerneck -1.33093 1.61427 8.29142
upperneck -14.3804 2.14857 -5.223
head -3.92626 1.04313 -3.0473
rclavicle -4.35338e-014 7.95139e-016
rhumerus -45.5924 18.5975 -86.6156
rradius 78.3072
rwrist -14.5685
rhand -16.8225 -10.3403
rfingers 7.12502
rthumb 9.40664 -40.1104
lclavicle -4.35338e-014 7.95139e-016
lhumerus -73.909 -25.0742 87.0211
lradius 63.2811
lwrist 3.12286
lhand 24.6481 13.0048
lfingers 7.12502
lthumb 48.8379 34.817
rfemur 5.67658 7.13324 27.1912
rtibia 23.283
rfoot -3.02786 9.42014
rtoes -19.8906
lfemur -30.0783 -3.33336 -9.86723
ltibia 26.8186
lfoot -18.645 5.14168
ltoes -18.2297
1036
root -3.54811 17.8854 -1.68078 -39.2382 79.4164 -44.6289
lowerback 17.4838 2.72779 4.97561
upperback 3.30185 4.67502 0.213843
thorax -5.84532 2.26828 -3.61269
lowerneck -1.26434 1.56597 8.15561
upperneck -14.4709 2.15671 -4.63664
head -3.97754 1.02658 -2.84611
rclavicle 1.49089e-015 -8.74653e-015
rhumerus -45.4517 18.8059 -86.8184
rradius 78.2595
rwrist -14.9455
rhand -16.5748 -10.6605
rfingers 7.12502
rthumb 9.64556 -40.4197
lclavicle 1.49089e-015 -8.74653e-015
lhumerus -73.4331 -25.2217 86.6554
lradius 63.1668
lwrist 3.04873
lhand 24.5548 13.0197
lfingers 7.12502
lthumb 48.7521 34.8738
rfemur 5.63584 6.91756 27.3435
rtibia 25.1026
rfoot -1.7193 10.4851
rtoes -19.4155
lfemur -29.7257 -2.98528 -9.71975
ltibia 27.6353
lfoot -16.9887 4.25198
ltoes -17.7401
1037
root -3.37506 17.8334 -1.66901 -40.9786 79.111 -45.906
lowerback 17.7694 2.66296 4.95218
upperback 3.40011 4.60165 0.164887
thorax -5.89808 2.23515 -3.65239
lowerneck -1.145 1.52765 8.04016
upperneck -14.6554 2.18776 -4.04876
head -4.06451 1.0201 -2.65079
rclavicle 1.98785e-016 0
rhumerus -45.2795 18.9915 -87.0478
rradius 78.0597
rwrist -15.1681
rhand -16.3606 -11.0384
rfingers 7.12502
rthumb 9.85227 -40.7879
lclavicle 1.98785e-016 0
lhumerus -72.8222 -25.3528 86.272
lradius 62.9501
lwrist 2.91869
lhand 24.3364 12.9332
lfingers 7.12502
lthumb 48.5512 34.8847
rfemur 5.57054 6.71889 27.5136
rtibia 26.9704
rfoot -0.21163 11.4718
rtoes -18.9319
lfemur -29.4077 -2.47406 -9.5709
ltibia 28.673
lfoot -15.2076 3.06175
ltoes -16.6192
1038
root -3.20553 17.7839 -1.65587 -42.5422 78.8588 -46.9787
lowerback 18.0998 2.57778 4.86583
upperback 3.51892 4.49104 0.0935109
thorax -5.95895 2.18543 -3.6746
lowerneck -0.967319 1.49997 7.94478
upperneck -14.9531 2.24409 -3.47004
head -4.19403 1.02466 -2.46493
rclavicle -3.57812e-015 -1.07344e-014
rhumerus -45.0792 19.1379 -87.3102
rradius 77.7089
rwrist -15.1816
rhand -16.1947 -11.4459
rfingers 7.12502
rthumb 10.0124 -41.1878
lclavicle -3.57812e-015 -1.07344e-014
lhumerus -72.0457 -25.4728 85.8629
lradius 62.6098
lwrist 2.7348
lhand 23.9766 12.7285
lfingers 7.12502
lthumb 48.2199 34.8381
rfemur 5.42964 6.56385 27.6263
rtibia 28.956
rfoot 1.37678 12.3484
rtoes -18.6064
lfemur -29.1172 -1.8631 -9.49237
ltibia 29.8689
lfoot -13.5189 1.70688
ltoes -14.8567
1039
root -3.03942 17.7383 -1.64073 -43.6553 78.7217 -47.5881
lowerback 18.4458 2.4875 4.63941
upperback 3.66012 4.34438 -0.0213005
thorax -6.01385 2.12135 -3.65598
lowerneck -0.72176 1.47441 7.85748
upperneck -15.3731 2.31598 -2.90561
head -4.37161 1.03534 -2.28805
rclavicle -5.60573e-014 6.36111e-015
rhumerus -44.8663 19.2311 -87.6051
rradius 77.2144
rwrist -14.9666
rhand -16.1165 -11.8605
rfingers 7.12502
rthumb 10.0877 -41.5987
lclavicle -5.60573e-014 6.36111e-015
lhumerus -71.0791 -25.595 85.4281
lradius 62.1287
lwrist 2.48976
lhand 23.4726 12.386
lfingers 7.12502
lthumb 47.7552 34.7122
rfemur 5.15617 6.46616 27.5996
rtibia 31.1366
rfoot 2.86128 13.1085
rtoes -18.6591
lfemur -28.8305 -1.23927 -9.55783
ltibia 31.1429
lfoot -12.1343 0.360795
ltoes -12.6607
1040
root -2.87706 17.6972 -1.62288 -44.113 78.7758 -47.5623
lowerback 18.7726 2.4052 4.2018
upperback 3.8155 4.16026 -0.200061
thorax -6.05567 2.04304 -3.57545
lowerneck -0.427714 1.44291 7.76533
upperneck -15.8845 2.39035 -2.35987
head -4.58587 1.04597 -2.11818
rclavicle -7.15625e-015 3.18055e-015
rhumerus -44.6661 19.257 -87.9278
rradius 76.589
rwrist -14.5251
rhand -16.1433 -12.2797
rfingers 7.12502
rthumb 10.0619 -42.0192
lclavicle -7.15625e-015 3.18055e-015
lhumerus -69.9104 -25.7452 84.9704
lradius 61.499
lwrist 2.17067
lhand 22.8224 11.9197
lfingers 7.12502
lthumb 47.1547 34.5174
rfemur 4.68557 6.42073 27.3518
rtibia 33.5665
rfoot 3.9991 13.7289
rtoes -19.3651
lfemur -28.5489 -0.691393 -9.844
ltibia 32.4145
lfoot -11.2103 -0.858704
ltoes -10.2067
